<svg width="91" height="91" viewBox="0 0 91 91" fill="none" xmlns="http://www.w3.org/2000/svg">
<path fill-rule="evenodd" clip-rule="evenodd" d="M90.9966 45.4966C90.9966 45.4966 91.5363 24.5894 78.9732 12.0266C66.4106 -0.536012 45.5034 0.00337319 45.5034 0.00337319C45.5034 0.00337319 45.5004 0.111057 45.5 0.315554C45.5 0.229188 45.4992 0.160096 45.4987 0.109077C45.4979 0.0393099 45.4966 0.00337319 45.4966 0.00337319C45.4966 0.00337319 24.5894 -0.536012 12.0266 12.0266C-0.536012 24.5894 0.00337319 45.4966 0.00337319 45.4966C0.00337319 45.4966 20.9108 46.0359 33.4733 33.4733C44.9561 21.9909 45.4928 3.53683 45.5 0.448431C45.5076 3.53683 46.0443 21.9909 57.5267 33.4733C70.0894 46.0359 90.9966 45.4966 90.9966 45.4966ZM12.0266 78.9733C-0.536012 66.4106 0.00337319 45.5034 0.00337319 45.5034C0.00337319 45.5034 20.9108 44.9641 33.4733 57.5267C44.9561 69.0092 45.4928 87.4632 45.5 90.5517C45.5076 87.4632 46.0443 69.0092 57.5267 57.5267C70.0894 44.9641 90.9966 45.5034 90.9966 45.5034C90.9966 45.5034 91.5363 66.4106 78.9732 78.9733C66.4106 91.5359 45.5034 90.9966 45.5034 90.9966C45.5034 90.9966 45.5004 90.8888 45.5 90.6844C45.4996 90.8888 45.4966 90.9966 45.4966 90.9966C45.4966 90.9966 24.5894 91.5359 12.0266 78.9733Z" fill="#F2C94C"/>
</svg>
